<?xml version="1.0" encoding="UTF-8"?>
<!DOCTYPE svg PUBLIC "-//W3C//DTD SVG 1.1//EN" "http://www.w3.org/Graphics/SVG/1.1/DTD/svg11.dtd">
<!-- Creator: CorelDRAW 2017 -->
<svg xmlns="http://www.w3.org/2000/svg" xml:space="preserve" width="210mm" height="297mm" version="1.1" style="shape-rendering:geometricPrecision; text-rendering:geometricPrecision; image-rendering:optimizeQuality; fill-rule:evenodd; clip-rule:evenodd"
viewBox="0 0 21000 29700"
 xmlns:xlink="http://www.w3.org/1999/xlink">
 <defs>
  <style type="text/css">
   <![CDATA[
    .fil0 {fill:#373435;fill-rule:nonzero}
    .fil1 {fill:#FACA12;fill-rule:nonzero}
    .fil2 {fill:white;fill-rule:nonzero}
   ]]>
  </style>
 </defs>
 <g id="Camada_x0020_1">
  <metadata id="CorelCorpID_0Corel-Layer"/>
  <g id="_2255488216336">
   <polygon class="fil0" points="12088,18260 18065,13823 18065,16125 22708,16125 22708,20368 18065,20368 18065,22670 "/>
   <path class="fil1" d="M12936 19918c-315,0 -570,-449 -570,-1001 0,-553 255,-1001 570,-1001 315,0 570,448 570,1001 0,552 -255,1001 -570,1001zm-6438 -10449c-379,33 -668,349 -668,729l0 16752c0,356 254,658 604,721l7646 1362c214,38 433,-20 598,-159 166,-139 262,-344 262,-561l0 -18791c0,-207 -85,-400 -237,-540 -153,-140 -354,-208 -560,-189l-7646 676z"/>
   <path class="fil2" d="M12366 18917c0,552 255,1001 570,1001 315,0 570,-449 570,-1001 0,-553 -255,-1001 -570,-1001 -315,0 -570,448 -570,1001z"/>
   <path class="fil1" d="M19546 15737l0 -5727c0,-150 -60,-297 -167,-404 -105,-106 -253,-167 -402,-167l-3553 0 0 1141 2983 0 0 5157 1140 0z"/>
   <path class="fil1" d="M15423 27254l0 1141 3553 0c150,0 297,-61 402,-167 107,-106 167,-253 167,-403l0 -6574 -1140 0 0 6004 -2983 0z"/>
  </g>
 </g>
</svg>
